<?xml version="1.0" encoding="UTF-8"?><svg id="a" xmlns="http://www.w3.org/2000/svg" viewBox="0 0 716 288.43"><defs><style>.b{fill:#0f0f0f;}</style></defs><path class="b" d="M0,3.44h27.67l70.56,156.89L168.51,3.44h27.12l-97.95,209.19L0,3.44Z"/><path class="b" d="M618.28,122.36l-67.91,90.27h-29.23l82.53-110.04L528.88,3.44h30.09l59.6,79.38L678.17,3.44h29.23l-74.22,98.86,82.81,110.32h-30.09l-67.63-90.27Z"/><path class="b" d="M320.14,34.64c11.34-6.4,24.36-10,38.24-10,44.13,0,79.66,36.39,79.66,83.39,0,13.25-2.83,25.65-7.87,36.64l19.08,19.08c9.62-16.28,15.15-35.34,15.15-55.72,0-59.6-47.28-108.03-106.03-108.03-20.75,0-40.06,6.07-56.37,16.51l18.13,18.13Z"/><path class="b" d="M394.02,182.81c-10.71,5.52-22.8,8.61-35.63,8.61-44.13,0-79.66-36.39-79.66-83.39,0-12.14,2.39-23.57,6.67-33.85l-19.32-19.32c-8.72,15.71-13.71,33.84-13.71,53.16,0,59.6,47.28,108.03,106.03,108.03,19.72,0,38.13-5.48,53.91-14.98l-18.28-18.28Z"/><path class="b" d="M27.2,287.54h-3.29v-26.13h6.44c5.41,0,9.38,2.76,9.38,7.66,0,3.79-2.4,6.26-5.98,7.19l9.13,11.28h-3.9l-8.77-10.88h-3.01v10.88ZM27.2,273.97h3.11c3.54,0,6.05-1.72,6.05-4.9s-2.51-4.9-6.05-4.9h-3.11v9.81Z"/><path class="b" d="M64.57,261.41h15.46v2.79h-12.21v8.63h11.21v2.79h-11.21v9.13h12.31v2.79h-15.57v-26.13Z"/><path class="b" d="M109.11,285.1c3.15,0,5.44-1.61,5.44-4.33,0-2-1.18-3.01-3.33-4.12l-4.37-2.18c-2.69-1.36-5.05-2.94-5.05-6.44,0-4.19,3.4-7.05,7.95-7.05,2.86,0,5.33,1.22,6.94,2.65v3.54c-2-1.97-4.44-3.33-7.05-3.33s-4.69,1.47-4.69,3.97c0,1.93,1.5,2.9,3.33,3.87l4.19,2.08c3.4,1.68,5.23,3.33,5.23,6.76,0,4.55-3.83,7.45-8.66,7.45-3.22,0-6.12-1.29-7.73-2.65v-3.58c2.18,2,4.94,3.36,7.8,3.36Z"/><path class="b" d="M140.29,261.41h15.46v2.79h-12.21v8.63h11.21v2.79h-11.21v9.13h12.31v2.79h-15.57v-26.13Z"/><path class="b" d="M201.37,287.54h-3.51l-3.22-7.12h-11.88l-3.22,7.12h-3.47l12.64-27.06,12.67,27.06ZM183.97,277.77h9.45l-4.72-10.45-4.73,10.45Z"/><path class="b" d="M226.11,287.54h-3.29v-26.13h6.44c5.41,0,9.38,2.76,9.38,7.66,0,3.79-2.4,6.26-5.98,7.19l9.13,11.28h-3.9l-8.77-10.88h-3.01v10.88ZM226.11,273.97h3.11c3.54,0,6.05-1.72,6.05-4.9s-2.51-4.9-6.05-4.9h-3.11v9.81Z"/><path class="b" d="M281.13,281.81v3.87c-2,1.47-4.51,2.29-7.3,2.29-7.34,0-13.28-6.05-13.28-13.5s5.94-13.49,13.28-13.49c2.79,0,5.3.82,7.3,2.29v3.87c-1.75-1.93-4.37-3.01-7.23-3.01-5.62,0-10.06,4.55-10.06,10.35s4.44,10.35,10.06,10.35c2.86,0,5.48-1.07,7.23-3.01Z"/><path class="b" d="M321.59,275.62h-14.36v11.92h-3.29v-26.13h3.29v11.42h14.36v-11.42h3.29v26.13h-3.29v-11.92Z"/><path class="b" d="M378.3,261.41v26.13h-3.29v-26.13h3.29Z"/><path class="b" d="M421.47,261.41h3.26v27.03l-19.04-20.05v19.15h-3.26v-27.03l19.04,20.05v-19.15Z"/><path class="b" d="M454.81,285.1c3.15,0,5.44-1.61,5.44-4.33,0-2-1.18-3.01-3.33-4.12l-4.37-2.18c-2.68-1.36-5.05-2.94-5.05-6.44,0-4.19,3.4-7.05,7.95-7.05,2.86,0,5.33,1.22,6.94,2.65v3.54c-2-1.97-4.44-3.33-7.05-3.33s-4.69,1.47-4.69,3.97c0,1.93,1.5,2.9,3.33,3.87l4.19,2.08c3.4,1.68,5.23,3.33,5.23,6.76,0,4.55-3.83,7.45-8.66,7.45-3.22,0-6.12-1.29-7.73-2.65v-3.58c2.18,2,4.94,3.36,7.8,3.36Z"/><path class="b" d="M495.12,264.2v23.34h-3.33v-23.34h-8.81v-2.79h20.94v2.79h-8.81Z"/><path class="b" d="M528.95,261.41v26.13h-3.29v-26.13h3.29Z"/><path class="b" d="M562.82,264.2v23.34h-3.33v-23.34h-8.81v-2.79h20.94v2.79h-8.81Z"/><path class="b" d="M602.74,285.03c3.9,0,6.66-2.76,6.66-7.73v-15.89h3.29v15.97c0,6.66-4.4,10.6-9.95,10.6s-9.95-3.94-9.95-10.6v-15.97h3.29v15.89c0,4.98,2.76,7.73,6.66,7.73Z"/><path class="b" d="M645.99,264.2v23.34h-3.33v-23.34h-8.81v-2.79h20.94v2.79h-8.81Z"/><path class="b" d="M676.52,261.41h15.46v2.79h-12.21v8.63h11.21v2.79h-11.21v9.13h12.31v2.79h-15.57v-26.13Z"/></svg>